M48
; DRILL file {KiCad 9.0.6} date 2026-01-21T20:04:51-0600
; FORMAT={-:-/ absolute / metric / decimal}
; #@! TF.CreationDate,2026-01-21T20:04:51-06:00
; #@! TF.GenerationSoftware,Kicad,Pcbnew,9.0.6
; #@! TF.FileFunction,Plated,1,2,PTH
FMAT,2
METRIC
; #@! TA.AperFunction,Plated,PTH,ViaDrill
T1C0.300
; #@! TA.AperFunction,Plated,PTH,ComponentDrill
T2C0.800
; #@! TA.AperFunction,Plated,PTH,ComponentDrill
T3C0.889
; #@! TA.AperFunction,Plated,PTH,ComponentDrill
T4C1.000
; #@! TA.AperFunction,Plated,PTH,ComponentDrill
T5C1.500
; #@! TA.AperFunction,Plated,PTH,ComponentDrill
T6C2.600
%
G90
G05
T1
X78.31Y-100.649
X81.32Y-60.43
X83.584Y-57.679
X83.62Y-68.584
X84.485Y-67.804
X84.821Y-73.343
X88.6Y-70.4
X90.546Y-60.932
X92.955Y-77.218
X106.885Y-73.004
X108.2Y-68.8
T2
X72.1Y-56.7
X72.1Y-60.25
X72.1Y-63.8
X72.1Y-67.35
X72.1Y-70.9
X79.72Y-56.7
X79.72Y-60.25
X79.72Y-63.8
X79.72Y-67.35
X79.72Y-70.9
T3
X94.297Y-57.15
X94.297Y-59.69
X94.297Y-62.23
X94.297Y-64.77
X94.297Y-67.31
X94.297Y-69.85
X94.297Y-72.39
X109.537Y-57.15
X109.537Y-59.69
X109.537Y-62.23
X109.537Y-64.77
X109.537Y-67.31
X109.537Y-69.85
X109.537Y-72.39
T4
X66.462Y-83.106
X66.462Y-85.606
X66.462Y-88.106
X80.962Y-83.106
X80.962Y-88.106
T5
X70.009Y-102.235
X76.359Y-99.695
X89.059Y-83.185
X89.059Y-102.235
X95.409Y-80.645
X95.409Y-99.695
X108.109Y-83.185
X108.109Y-102.235
X114.459Y-80.645
X114.459Y-99.695
T6
X73.962Y-80.006
X73.962Y-91.206
M30
