%TF.GenerationSoftware,KiCad,Pcbnew,9.0.6*%
%TF.CreationDate,2026-01-22T08:19:00-06:00*%
%TF.ProjectId,test test,74657374-2074-4657-9374-2e6b69636164,rev?*%
%TF.SameCoordinates,Original*%
%TF.FileFunction,Other,User*%
%FSLAX46Y46*%
G04 Gerber Fmt 4.6, Leading zero omitted, Abs format (unit mm)*
G04 Created by KiCad (PCBNEW 9.0.6) date 2026-01-22 08:19:00*
%MOMM*%
%LPD*%
G01*
G04 APERTURE LIST*
%ADD10C,0.050000*%
G04 APERTURE END LIST*
%TO.C,D5*%
D10*
X71050000Y-62550000D02*
X80770000Y-62550000D01*
X80770000Y-65050000D01*
X71050000Y-65050000D01*
X71050000Y-62550000D01*
%TO.C,SW6*%
X64962500Y-77906200D02*
X64962500Y-93306200D01*
X64962500Y-77906200D02*
X82462500Y-77906200D01*
X82462500Y-93306200D02*
X64962500Y-93306200D01*
X82462500Y-93306200D02*
X82462500Y-77906200D01*
%TO.C,SW4*%
X105318800Y-98175000D02*
X118518800Y-98175000D01*
X105318800Y-111375000D02*
X105318800Y-98175000D01*
X118518800Y-98175000D02*
X118518800Y-111375000D01*
X118518800Y-111375000D02*
X105318800Y-111375000D01*
%TO.C,SW5*%
X67218800Y-98175000D02*
X80418800Y-98175000D01*
X67218800Y-111375000D02*
X67218800Y-98175000D01*
X80418800Y-98175000D02*
X80418800Y-111375000D01*
X80418800Y-111375000D02*
X67218800Y-111375000D01*
%TO.C,SW1*%
X86268800Y-79125000D02*
X99468800Y-79125000D01*
X86268800Y-92325000D02*
X86268800Y-79125000D01*
X99468800Y-79125000D02*
X99468800Y-92325000D01*
X99468800Y-92325000D02*
X86268800Y-92325000D01*
%TO.C,D6*%
X71050000Y-66100000D02*
X80770000Y-66100000D01*
X80770000Y-68600000D01*
X71050000Y-68600000D01*
X71050000Y-66100000D01*
%TO.C,D4*%
X71050000Y-59000000D02*
X80770000Y-59000000D01*
X80770000Y-61500000D01*
X71050000Y-61500000D01*
X71050000Y-59000000D01*
%TO.C,SW3*%
X86268800Y-98175000D02*
X99468800Y-98175000D01*
X86268800Y-111375000D02*
X86268800Y-98175000D01*
X99468800Y-98175000D02*
X99468800Y-111375000D01*
X99468800Y-111375000D02*
X86268800Y-111375000D01*
%TO.C,D7*%
X71050000Y-69650000D02*
X80770000Y-69650000D01*
X80770000Y-72150000D01*
X71050000Y-72150000D01*
X71050000Y-69650000D01*
%TO.C,SW2*%
X105318800Y-79125000D02*
X118518800Y-79125000D01*
X105318800Y-92325000D02*
X105318800Y-79125000D01*
X118518800Y-79125000D02*
X118518800Y-92325000D01*
X118518800Y-92325000D02*
X105318800Y-92325000D01*
%TO.C,D3*%
X71050000Y-55450000D02*
X80770000Y-55450000D01*
X80770000Y-57950000D01*
X71050000Y-57950000D01*
X71050000Y-55450000D01*
%TD*%
M02*
