%TF.GenerationSoftware,KiCad,Pcbnew,9.0.6*%
%TF.CreationDate,2026-01-21T21:59:35-06:00*%
%TF.ProjectId,test test,74657374-2074-4657-9374-2e6b69636164,rev?*%
%TF.SameCoordinates,Original*%
%TF.FileFunction,Legend,Top*%
%TF.FilePolarity,Positive*%
%FSLAX46Y46*%
G04 Gerber Fmt 4.6, Leading zero omitted, Abs format (unit mm)*
G04 Created by KiCad (PCBNEW 9.0.6) date 2026-01-21 21:59:35*
%MOMM*%
%LPD*%
G01*
G04 APERTURE LIST*
%ADD10C,0.150000*%
%ADD11C,0.120000*%
%ADD12C,0.127000*%
%ADD13C,0.100000*%
G04 APERTURE END LIST*
D10*
X71838095Y-62454819D02*
X71838095Y-61454819D01*
X72409523Y-62454819D02*
X71980952Y-61883390D01*
X72409523Y-61454819D02*
X71838095Y-62026247D01*
X67929167Y-78813400D02*
X68072024Y-78861019D01*
X68072024Y-78861019D02*
X68310119Y-78861019D01*
X68310119Y-78861019D02*
X68405357Y-78813400D01*
X68405357Y-78813400D02*
X68452976Y-78765780D01*
X68452976Y-78765780D02*
X68500595Y-78670542D01*
X68500595Y-78670542D02*
X68500595Y-78575304D01*
X68500595Y-78575304D02*
X68452976Y-78480066D01*
X68452976Y-78480066D02*
X68405357Y-78432447D01*
X68405357Y-78432447D02*
X68310119Y-78384828D01*
X68310119Y-78384828D02*
X68119643Y-78337209D01*
X68119643Y-78337209D02*
X68024405Y-78289590D01*
X68024405Y-78289590D02*
X67976786Y-78241971D01*
X67976786Y-78241971D02*
X67929167Y-78146733D01*
X67929167Y-78146733D02*
X67929167Y-78051495D01*
X67929167Y-78051495D02*
X67976786Y-77956257D01*
X67976786Y-77956257D02*
X68024405Y-77908638D01*
X68024405Y-77908638D02*
X68119643Y-77861019D01*
X68119643Y-77861019D02*
X68357738Y-77861019D01*
X68357738Y-77861019D02*
X68500595Y-77908638D01*
X68833929Y-77861019D02*
X69072024Y-78861019D01*
X69072024Y-78861019D02*
X69262500Y-78146733D01*
X69262500Y-78146733D02*
X69452976Y-78861019D01*
X69452976Y-78861019D02*
X69691072Y-77861019D01*
X70500595Y-77861019D02*
X70310119Y-77861019D01*
X70310119Y-77861019D02*
X70214881Y-77908638D01*
X70214881Y-77908638D02*
X70167262Y-77956257D01*
X70167262Y-77956257D02*
X70072024Y-78099114D01*
X70072024Y-78099114D02*
X70024405Y-78289590D01*
X70024405Y-78289590D02*
X70024405Y-78670542D01*
X70024405Y-78670542D02*
X70072024Y-78765780D01*
X70072024Y-78765780D02*
X70119643Y-78813400D01*
X70119643Y-78813400D02*
X70214881Y-78861019D01*
X70214881Y-78861019D02*
X70405357Y-78861019D01*
X70405357Y-78861019D02*
X70500595Y-78813400D01*
X70500595Y-78813400D02*
X70548214Y-78765780D01*
X70548214Y-78765780D02*
X70595833Y-78670542D01*
X70595833Y-78670542D02*
X70595833Y-78432447D01*
X70595833Y-78432447D02*
X70548214Y-78337209D01*
X70548214Y-78337209D02*
X70500595Y-78289590D01*
X70500595Y-78289590D02*
X70405357Y-78241971D01*
X70405357Y-78241971D02*
X70214881Y-78241971D01*
X70214881Y-78241971D02*
X70119643Y-78289590D01*
X70119643Y-78289590D02*
X70072024Y-78337209D01*
X70072024Y-78337209D02*
X70024405Y-78432447D01*
X110585467Y-97308200D02*
X110728324Y-97355819D01*
X110728324Y-97355819D02*
X110966419Y-97355819D01*
X110966419Y-97355819D02*
X111061657Y-97308200D01*
X111061657Y-97308200D02*
X111109276Y-97260580D01*
X111109276Y-97260580D02*
X111156895Y-97165342D01*
X111156895Y-97165342D02*
X111156895Y-97070104D01*
X111156895Y-97070104D02*
X111109276Y-96974866D01*
X111109276Y-96974866D02*
X111061657Y-96927247D01*
X111061657Y-96927247D02*
X110966419Y-96879628D01*
X110966419Y-96879628D02*
X110775943Y-96832009D01*
X110775943Y-96832009D02*
X110680705Y-96784390D01*
X110680705Y-96784390D02*
X110633086Y-96736771D01*
X110633086Y-96736771D02*
X110585467Y-96641533D01*
X110585467Y-96641533D02*
X110585467Y-96546295D01*
X110585467Y-96546295D02*
X110633086Y-96451057D01*
X110633086Y-96451057D02*
X110680705Y-96403438D01*
X110680705Y-96403438D02*
X110775943Y-96355819D01*
X110775943Y-96355819D02*
X111014038Y-96355819D01*
X111014038Y-96355819D02*
X111156895Y-96403438D01*
X111490229Y-96355819D02*
X111728324Y-97355819D01*
X111728324Y-97355819D02*
X111918800Y-96641533D01*
X111918800Y-96641533D02*
X112109276Y-97355819D01*
X112109276Y-97355819D02*
X112347372Y-96355819D01*
X113156895Y-96689152D02*
X113156895Y-97355819D01*
X112918800Y-96308200D02*
X112680705Y-97022485D01*
X112680705Y-97022485D02*
X113299752Y-97022485D01*
X72485467Y-97308200D02*
X72628324Y-97355819D01*
X72628324Y-97355819D02*
X72866419Y-97355819D01*
X72866419Y-97355819D02*
X72961657Y-97308200D01*
X72961657Y-97308200D02*
X73009276Y-97260580D01*
X73009276Y-97260580D02*
X73056895Y-97165342D01*
X73056895Y-97165342D02*
X73056895Y-97070104D01*
X73056895Y-97070104D02*
X73009276Y-96974866D01*
X73009276Y-96974866D02*
X72961657Y-96927247D01*
X72961657Y-96927247D02*
X72866419Y-96879628D01*
X72866419Y-96879628D02*
X72675943Y-96832009D01*
X72675943Y-96832009D02*
X72580705Y-96784390D01*
X72580705Y-96784390D02*
X72533086Y-96736771D01*
X72533086Y-96736771D02*
X72485467Y-96641533D01*
X72485467Y-96641533D02*
X72485467Y-96546295D01*
X72485467Y-96546295D02*
X72533086Y-96451057D01*
X72533086Y-96451057D02*
X72580705Y-96403438D01*
X72580705Y-96403438D02*
X72675943Y-96355819D01*
X72675943Y-96355819D02*
X72914038Y-96355819D01*
X72914038Y-96355819D02*
X73056895Y-96403438D01*
X73390229Y-96355819D02*
X73628324Y-97355819D01*
X73628324Y-97355819D02*
X73818800Y-96641533D01*
X73818800Y-96641533D02*
X74009276Y-97355819D01*
X74009276Y-97355819D02*
X74247372Y-96355819D01*
X75104514Y-96355819D02*
X74628324Y-96355819D01*
X74628324Y-96355819D02*
X74580705Y-96832009D01*
X74580705Y-96832009D02*
X74628324Y-96784390D01*
X74628324Y-96784390D02*
X74723562Y-96736771D01*
X74723562Y-96736771D02*
X74961657Y-96736771D01*
X74961657Y-96736771D02*
X75056895Y-96784390D01*
X75056895Y-96784390D02*
X75104514Y-96832009D01*
X75104514Y-96832009D02*
X75152133Y-96927247D01*
X75152133Y-96927247D02*
X75152133Y-97165342D01*
X75152133Y-97165342D02*
X75104514Y-97260580D01*
X75104514Y-97260580D02*
X75056895Y-97308200D01*
X75056895Y-97308200D02*
X74961657Y-97355819D01*
X74961657Y-97355819D02*
X74723562Y-97355819D01*
X74723562Y-97355819D02*
X74628324Y-97308200D01*
X74628324Y-97308200D02*
X74580705Y-97260580D01*
X91535467Y-78258200D02*
X91678324Y-78305819D01*
X91678324Y-78305819D02*
X91916419Y-78305819D01*
X91916419Y-78305819D02*
X92011657Y-78258200D01*
X92011657Y-78258200D02*
X92059276Y-78210580D01*
X92059276Y-78210580D02*
X92106895Y-78115342D01*
X92106895Y-78115342D02*
X92106895Y-78020104D01*
X92106895Y-78020104D02*
X92059276Y-77924866D01*
X92059276Y-77924866D02*
X92011657Y-77877247D01*
X92011657Y-77877247D02*
X91916419Y-77829628D01*
X91916419Y-77829628D02*
X91725943Y-77782009D01*
X91725943Y-77782009D02*
X91630705Y-77734390D01*
X91630705Y-77734390D02*
X91583086Y-77686771D01*
X91583086Y-77686771D02*
X91535467Y-77591533D01*
X91535467Y-77591533D02*
X91535467Y-77496295D01*
X91535467Y-77496295D02*
X91583086Y-77401057D01*
X91583086Y-77401057D02*
X91630705Y-77353438D01*
X91630705Y-77353438D02*
X91725943Y-77305819D01*
X91725943Y-77305819D02*
X91964038Y-77305819D01*
X91964038Y-77305819D02*
X92106895Y-77353438D01*
X92440229Y-77305819D02*
X92678324Y-78305819D01*
X92678324Y-78305819D02*
X92868800Y-77591533D01*
X92868800Y-77591533D02*
X93059276Y-78305819D01*
X93059276Y-78305819D02*
X93297372Y-77305819D01*
X94202133Y-78305819D02*
X93630705Y-78305819D01*
X93916419Y-78305819D02*
X93916419Y-77305819D01*
X93916419Y-77305819D02*
X93821181Y-77448676D01*
X93821181Y-77448676D02*
X93725943Y-77543914D01*
X93725943Y-77543914D02*
X93630705Y-77591533D01*
X71838095Y-66004819D02*
X71838095Y-65004819D01*
X72409523Y-66004819D02*
X71980952Y-65433390D01*
X72409523Y-65004819D02*
X71838095Y-65576247D01*
X71838095Y-58904819D02*
X71838095Y-57904819D01*
X72409523Y-58904819D02*
X71980952Y-58333390D01*
X72409523Y-57904819D02*
X71838095Y-58476247D01*
X91535467Y-97308200D02*
X91678324Y-97355819D01*
X91678324Y-97355819D02*
X91916419Y-97355819D01*
X91916419Y-97355819D02*
X92011657Y-97308200D01*
X92011657Y-97308200D02*
X92059276Y-97260580D01*
X92059276Y-97260580D02*
X92106895Y-97165342D01*
X92106895Y-97165342D02*
X92106895Y-97070104D01*
X92106895Y-97070104D02*
X92059276Y-96974866D01*
X92059276Y-96974866D02*
X92011657Y-96927247D01*
X92011657Y-96927247D02*
X91916419Y-96879628D01*
X91916419Y-96879628D02*
X91725943Y-96832009D01*
X91725943Y-96832009D02*
X91630705Y-96784390D01*
X91630705Y-96784390D02*
X91583086Y-96736771D01*
X91583086Y-96736771D02*
X91535467Y-96641533D01*
X91535467Y-96641533D02*
X91535467Y-96546295D01*
X91535467Y-96546295D02*
X91583086Y-96451057D01*
X91583086Y-96451057D02*
X91630705Y-96403438D01*
X91630705Y-96403438D02*
X91725943Y-96355819D01*
X91725943Y-96355819D02*
X91964038Y-96355819D01*
X91964038Y-96355819D02*
X92106895Y-96403438D01*
X92440229Y-96355819D02*
X92678324Y-97355819D01*
X92678324Y-97355819D02*
X92868800Y-96641533D01*
X92868800Y-96641533D02*
X93059276Y-97355819D01*
X93059276Y-97355819D02*
X93297372Y-96355819D01*
X93583086Y-96355819D02*
X94202133Y-96355819D01*
X94202133Y-96355819D02*
X93868800Y-96736771D01*
X93868800Y-96736771D02*
X94011657Y-96736771D01*
X94011657Y-96736771D02*
X94106895Y-96784390D01*
X94106895Y-96784390D02*
X94154514Y-96832009D01*
X94154514Y-96832009D02*
X94202133Y-96927247D01*
X94202133Y-96927247D02*
X94202133Y-97165342D01*
X94202133Y-97165342D02*
X94154514Y-97260580D01*
X94154514Y-97260580D02*
X94106895Y-97308200D01*
X94106895Y-97308200D02*
X94011657Y-97355819D01*
X94011657Y-97355819D02*
X93725943Y-97355819D01*
X93725943Y-97355819D02*
X93630705Y-97308200D01*
X93630705Y-97308200D02*
X93583086Y-97260580D01*
X71838095Y-69554819D02*
X71838095Y-68554819D01*
X72409523Y-69554819D02*
X71980952Y-68983390D01*
X72409523Y-68554819D02*
X71838095Y-69126247D01*
X110585467Y-78258200D02*
X110728324Y-78305819D01*
X110728324Y-78305819D02*
X110966419Y-78305819D01*
X110966419Y-78305819D02*
X111061657Y-78258200D01*
X111061657Y-78258200D02*
X111109276Y-78210580D01*
X111109276Y-78210580D02*
X111156895Y-78115342D01*
X111156895Y-78115342D02*
X111156895Y-78020104D01*
X111156895Y-78020104D02*
X111109276Y-77924866D01*
X111109276Y-77924866D02*
X111061657Y-77877247D01*
X111061657Y-77877247D02*
X110966419Y-77829628D01*
X110966419Y-77829628D02*
X110775943Y-77782009D01*
X110775943Y-77782009D02*
X110680705Y-77734390D01*
X110680705Y-77734390D02*
X110633086Y-77686771D01*
X110633086Y-77686771D02*
X110585467Y-77591533D01*
X110585467Y-77591533D02*
X110585467Y-77496295D01*
X110585467Y-77496295D02*
X110633086Y-77401057D01*
X110633086Y-77401057D02*
X110680705Y-77353438D01*
X110680705Y-77353438D02*
X110775943Y-77305819D01*
X110775943Y-77305819D02*
X111014038Y-77305819D01*
X111014038Y-77305819D02*
X111156895Y-77353438D01*
X111490229Y-77305819D02*
X111728324Y-78305819D01*
X111728324Y-78305819D02*
X111918800Y-77591533D01*
X111918800Y-77591533D02*
X112109276Y-78305819D01*
X112109276Y-78305819D02*
X112347372Y-77305819D01*
X112680705Y-77401057D02*
X112728324Y-77353438D01*
X112728324Y-77353438D02*
X112823562Y-77305819D01*
X112823562Y-77305819D02*
X113061657Y-77305819D01*
X113061657Y-77305819D02*
X113156895Y-77353438D01*
X113156895Y-77353438D02*
X113204514Y-77401057D01*
X113204514Y-77401057D02*
X113252133Y-77496295D01*
X113252133Y-77496295D02*
X113252133Y-77591533D01*
X113252133Y-77591533D02*
X113204514Y-77734390D01*
X113204514Y-77734390D02*
X112633086Y-78305819D01*
X112633086Y-78305819D02*
X113252133Y-78305819D01*
D11*
%TO.C,D5*%
X73140000Y-63800000D02*
X73790000Y-63800000D01*
X74390000Y-62680000D02*
X74390000Y-64920000D01*
X74510000Y-62680000D02*
X74510000Y-64920000D01*
X74630000Y-62680000D02*
X74630000Y-64920000D01*
X78680000Y-63800000D02*
X78030000Y-63800000D01*
X73790000Y-62680000D02*
X78030000Y-62680000D01*
X78030000Y-64920000D01*
X73790000Y-64920000D01*
X73790000Y-62680000D01*
%TO.C,SW6*%
X66162500Y-81506200D02*
X66762500Y-81506200D01*
X66462500Y-81806200D02*
X66162500Y-81506200D01*
X66762500Y-81506200D02*
X66462500Y-81806200D01*
X67862500Y-79706200D02*
X67862500Y-91506200D01*
X71962500Y-79706200D02*
X67862500Y-79706200D01*
X71962500Y-91506200D02*
X67862500Y-91506200D01*
X73462500Y-85606200D02*
X74462500Y-85606200D01*
X73962500Y-85106200D02*
X73962500Y-86106200D01*
X75962500Y-79706200D02*
X80062500Y-79706200D01*
X80062500Y-79706200D02*
X80062500Y-82106200D01*
X80062500Y-84306200D02*
X80062500Y-86906200D01*
X80062500Y-89106200D02*
X80062500Y-91506200D01*
X80062500Y-91506200D02*
X75962500Y-91506200D01*
X76962500Y-85606200D02*
G75*
G02*
X70962500Y-85606200I-3000000J0D01*
G01*
X70962500Y-85606200D02*
G75*
G02*
X76962500Y-85606200I3000000J0D01*
G01*
%TO.C,SW4*%
X104933800Y-97790000D02*
X118903800Y-97790000D01*
X104933800Y-111760000D02*
X104933800Y-97790000D01*
X118903800Y-97790000D02*
X118903800Y-111760000D01*
X118903800Y-111760000D02*
X104933800Y-111760000D01*
%TO.C,SW5*%
X66833800Y-97790000D02*
X80803800Y-97790000D01*
X66833800Y-111760000D02*
X66833800Y-97790000D01*
X80803800Y-97790000D02*
X80803800Y-111760000D01*
X80803800Y-111760000D02*
X66833800Y-111760000D01*
D12*
%TO.C,U1*%
X93027500Y-73279000D02*
X93027500Y-56134000D01*
X94932500Y-75184000D02*
X108902500Y-75184000D01*
X97422500Y-54229000D02*
X97426228Y-53318728D01*
X97926228Y-52819000D02*
X105921500Y-52819000D01*
X106421500Y-53319000D02*
X106421500Y-54229000D01*
D13*
X108902500Y-54229000D02*
X94932500Y-54229000D01*
D12*
X108902500Y-54229000D02*
X94932500Y-54229000D01*
X110807500Y-73279000D02*
X110807500Y-56134000D01*
X93027500Y-56134000D02*
G75*
G02*
X94932500Y-54229000I1905001J-1D01*
G01*
X94932500Y-75184000D02*
G75*
G02*
X93027500Y-73279000I1J1905001D01*
G01*
X97426228Y-53318728D02*
G75*
G02*
X97926228Y-52819001I500018J-291D01*
G01*
X105921500Y-52819000D02*
G75*
G02*
X106421500Y-53319000I0J-500000D01*
G01*
X108902500Y-54229000D02*
G75*
G02*
X110807500Y-56134000I0J-1905000D01*
G01*
X110807500Y-73279000D02*
G75*
G02*
X108902500Y-75184000I-1905000J0D01*
G01*
D11*
%TO.C,SW1*%
X85883800Y-78740000D02*
X99853800Y-78740000D01*
X85883800Y-92710000D02*
X85883800Y-78740000D01*
X99853800Y-78740000D02*
X99853800Y-92710000D01*
X99853800Y-92710000D02*
X85883800Y-92710000D01*
%TO.C,D6*%
X73140000Y-67350000D02*
X73790000Y-67350000D01*
X74390000Y-66230000D02*
X74390000Y-68470000D01*
X74510000Y-66230000D02*
X74510000Y-68470000D01*
X74630000Y-66230000D02*
X74630000Y-68470000D01*
X78680000Y-67350000D02*
X78030000Y-67350000D01*
X73790000Y-66230000D02*
X78030000Y-66230000D01*
X78030000Y-68470000D01*
X73790000Y-68470000D01*
X73790000Y-66230000D01*
%TO.C,D4*%
X73140000Y-60250000D02*
X73790000Y-60250000D01*
X74390000Y-59130000D02*
X74390000Y-61370000D01*
X74510000Y-59130000D02*
X74510000Y-61370000D01*
X74630000Y-59130000D02*
X74630000Y-61370000D01*
X78680000Y-60250000D02*
X78030000Y-60250000D01*
X73790000Y-59130000D02*
X78030000Y-59130000D01*
X78030000Y-61370000D01*
X73790000Y-61370000D01*
X73790000Y-59130000D01*
%TO.C,SW3*%
X85883800Y-97790000D02*
X99853800Y-97790000D01*
X85883800Y-111760000D02*
X85883800Y-97790000D01*
X99853800Y-97790000D02*
X99853800Y-111760000D01*
X99853800Y-111760000D02*
X85883800Y-111760000D01*
%TO.C,D7*%
X73140000Y-70900000D02*
X73790000Y-70900000D01*
X74390000Y-69780000D02*
X74390000Y-72020000D01*
X74510000Y-69780000D02*
X74510000Y-72020000D01*
X74630000Y-69780000D02*
X74630000Y-72020000D01*
X78680000Y-70900000D02*
X78030000Y-70900000D01*
X73790000Y-69780000D02*
X78030000Y-69780000D01*
X78030000Y-72020000D01*
X73790000Y-72020000D01*
X73790000Y-69780000D01*
%TO.C,SW2*%
X104933800Y-78740000D02*
X118903800Y-78740000D01*
X104933800Y-92710000D02*
X104933800Y-78740000D01*
X118903800Y-78740000D02*
X118903800Y-92710000D01*
X118903800Y-92710000D02*
X104933800Y-92710000D01*
%TO.C,D3*%
X73140000Y-56700000D02*
X73790000Y-56700000D01*
X74390000Y-55580000D02*
X74390000Y-57820000D01*
X74510000Y-55580000D02*
X74510000Y-57820000D01*
X74630000Y-55580000D02*
X74630000Y-57820000D01*
X78680000Y-56700000D02*
X78030000Y-56700000D01*
X73790000Y-55580000D02*
X78030000Y-55580000D01*
X78030000Y-57820000D01*
X73790000Y-57820000D01*
X73790000Y-55580000D01*
%TD*%
M02*
