%TF.GenerationSoftware,KiCad,Pcbnew,9.0.6*%
%TF.CreationDate,2026-01-21T21:50:30-06:00*%
%TF.ProjectId,test test,74657374-2074-4657-9374-2e6b69636164,rev?*%
%TF.SameCoordinates,Original*%
%TF.FileFunction,Copper,L2,Bot*%
%TF.FilePolarity,Positive*%
%FSLAX46Y46*%
G04 Gerber Fmt 4.6, Leading zero omitted, Abs format (unit mm)*
G04 Created by KiCad (PCBNEW 9.0.6) date 2026-01-21 21:50:30*
%MOMM*%
%LPD*%
G01*
G04 APERTURE LIST*
G04 Aperture macros list*
%AMRoundRect*
0 Rectangle with rounded corners*
0 $1 Rounding radius*
0 $2 $3 $4 $5 $6 $7 $8 $9 X,Y pos of 4 corners*
0 Add a 4 corners polygon primitive as box body*
4,1,4,$2,$3,$4,$5,$6,$7,$8,$9,$2,$3,0*
0 Add four circle primitives for the rounded corners*
1,1,$1+$1,$2,$3*
1,1,$1+$1,$4,$5*
1,1,$1+$1,$6,$7*
1,1,$1+$1,$8,$9*
0 Add four rect primitives between the rounded corners*
20,1,$1+$1,$2,$3,$4,$5,0*
20,1,$1+$1,$4,$5,$6,$7,0*
20,1,$1+$1,$6,$7,$8,$9,0*
20,1,$1+$1,$8,$9,$2,$3,0*%
G04 Aperture macros list end*
%TA.AperFunction,ComponentPad*%
%ADD10RoundRect,0.250000X-0.550000X-0.550000X0.550000X-0.550000X0.550000X0.550000X-0.550000X0.550000X0*%
%TD*%
%TA.AperFunction,ComponentPad*%
%ADD11C,1.600000*%
%TD*%
%TA.AperFunction,ComponentPad*%
%ADD12R,2.000000X2.000000*%
%TD*%
%TA.AperFunction,ComponentPad*%
%ADD13C,2.000000*%
%TD*%
%TA.AperFunction,ComponentPad*%
%ADD14C,3.200000*%
%TD*%
%TA.AperFunction,ComponentPad*%
%ADD15C,2.200000*%
%TD*%
%TA.AperFunction,SMDPad,CuDef*%
%ADD16RoundRect,0.082000X-0.418000X0.328000X-0.418000X-0.328000X0.418000X-0.328000X0.418000X0.328000X0*%
%TD*%
%TA.AperFunction,SMDPad,CuDef*%
%ADD17RoundRect,0.076284X-0.423716X0.305137X-0.423716X-0.305137X0.423716X-0.305137X0.423716X0.305137X0*%
%TD*%
%TA.AperFunction,ComponentPad*%
%ADD18C,1.524000*%
%TD*%
%TA.AperFunction,ViaPad*%
%ADD19C,0.600000*%
%TD*%
%TA.AperFunction,Conductor*%
%ADD20C,0.200000*%
%TD*%
G04 APERTURE END LIST*
D10*
%TO.P,D5,1,K*%
%TO.N,Net-(D5-K)*%
X72100000Y-63800000D03*
D11*
%TO.P,D5,2,A*%
%TO.N,Net-(D5-A)*%
X79720000Y-63800000D03*
%TD*%
D12*
%TO.P,SW6,A,A*%
%TO.N,Net-(U1-GPIO2{slash}SCK)*%
X66462500Y-83106200D03*
D13*
%TO.P,SW6,B,B*%
%TO.N,Net-(U1-GPIO4{slash}MISO)*%
X66462500Y-88106200D03*
%TO.P,SW6,C,C*%
%TO.N,unconnected-(SW6-PadC)*%
X66462500Y-85606200D03*
D14*
%TO.P,SW6,MP*%
%TO.N,N/C*%
X73962500Y-80006200D03*
X73962500Y-91206200D03*
D13*
%TO.P,SW6,S1,S1*%
%TO.N,Net-(U1-GPIO3{slash}MOSI)*%
X80962500Y-88106200D03*
%TO.P,SW6,S2,S2*%
%TO.N,GND*%
X80962500Y-83106200D03*
%TD*%
D15*
%TO.P,SW4,1,1*%
%TO.N,GND*%
X114458800Y-99695000D03*
%TO.P,SW4,2,2*%
%TO.N,Net-(D4-K)*%
X108108800Y-102235000D03*
%TD*%
D16*
%TO.P,D2,4,DIN*%
%TO.N,Net-(D1-DOUT)*%
X121200000Y-64547158D03*
D17*
%TO.P,D2,2*%
%TO.N,Net-(D1-DIN)*%
X115200000Y-66018579D03*
D16*
%TO.P,D2,1,VDD*%
%TO.N,+5V*%
X115200000Y-64547158D03*
%TO.P,D2,3,VSS*%
%TO.N,GND*%
X121200000Y-66047158D03*
%TD*%
D15*
%TO.P,SW5,1,1*%
%TO.N,GND*%
X76358800Y-99695000D03*
%TO.P,SW5,2,2*%
%TO.N,Net-(D3-K)*%
X70008800Y-102235000D03*
%TD*%
D16*
%TO.P,D1,1,VDD*%
%TO.N,+5V*%
X83200000Y-64547158D03*
D17*
%TO.P,D1,2*%
%TO.N,Net-(D1-DOUT)*%
X83200000Y-66018579D03*
D16*
%TO.P,D1,3,VSS*%
%TO.N,GND*%
X89200000Y-66047158D03*
%TO.P,D1,4,DIN*%
%TO.N,Net-(D1-DIN)*%
X89200000Y-64547158D03*
%TD*%
D15*
%TO.P,SW1,1,1*%
%TO.N,GND*%
X95408800Y-80645000D03*
%TO.P,SW1,2,2*%
%TO.N,Net-(D7-K)*%
X89058800Y-83185000D03*
%TD*%
D10*
%TO.P,D6,1,K*%
%TO.N,Net-(D6-K)*%
X72100000Y-67350000D03*
D11*
%TO.P,D6,2,A*%
%TO.N,Net-(D6-A)*%
X79720000Y-67350000D03*
%TD*%
D10*
%TO.P,D4,1,K*%
%TO.N,Net-(D4-K)*%
X72100000Y-60250000D03*
D11*
%TO.P,D4,2,A*%
%TO.N,Net-(D4-A)*%
X79720000Y-60250000D03*
%TD*%
D15*
%TO.P,SW3,1,1*%
%TO.N,GND*%
X95408800Y-99695000D03*
%TO.P,SW3,2,2*%
%TO.N,Net-(D5-K)*%
X89058800Y-102235000D03*
%TD*%
D10*
%TO.P,D7,1,K*%
%TO.N,Net-(D7-K)*%
X72100000Y-70900000D03*
D11*
%TO.P,D7,2,A*%
%TO.N,Net-(D7-A)*%
X79720000Y-70900000D03*
%TD*%
D15*
%TO.P,SW2,1,1*%
%TO.N,GND*%
X114458800Y-80645000D03*
%TO.P,SW2,2,2*%
%TO.N,Net-(D6-K)*%
X108108800Y-83185000D03*
%TD*%
D10*
%TO.P,D3,1,K*%
%TO.N,Net-(D3-K)*%
X72100000Y-56700000D03*
D11*
%TO.P,D3,2,A*%
%TO.N,Net-(D3-A)*%
X79720000Y-56700000D03*
%TD*%
D18*
%TO.P,U1,1,GPIO26/ADC0/A0*%
%TO.N,Net-(D7-A)*%
X94297500Y-57150000D03*
%TO.P,U1,2,GPIO27/ADC1/A1*%
%TO.N,Net-(D6-A)*%
X94297500Y-59690000D03*
%TO.P,U1,3,GPIO28/ADC2/A2*%
%TO.N,Net-(D5-A)*%
X94297500Y-62230000D03*
%TO.P,U1,4,GPIO29/ADC3/A3*%
%TO.N,Net-(D4-A)*%
X94297500Y-64770000D03*
%TO.P,U1,5,GPIO6/SDA*%
%TO.N,Net-(D3-A)*%
X94297500Y-67310000D03*
%TO.P,U1,6,GPIO7/SCL*%
%TO.N,unconnected-(U1-GPIO7{slash}SCL-Pad6)*%
X94297500Y-69850000D03*
%TO.P,U1,7,GPIO0/TX*%
%TO.N,unconnected-(U1-GPIO0{slash}TX-Pad7)*%
X94297500Y-72390000D03*
%TO.P,U1,8,GPIO1/RX*%
%TO.N,Net-(D1-DIN)*%
X109537500Y-72390000D03*
%TO.P,U1,9,GPIO2/SCK*%
%TO.N,Net-(U1-GPIO2{slash}SCK)*%
X109537500Y-69850000D03*
%TO.P,U1,10,GPIO4/MISO*%
%TO.N,Net-(U1-GPIO4{slash}MISO)*%
X109537500Y-67310000D03*
%TO.P,U1,11,GPIO3/MOSI*%
%TO.N,Net-(U1-GPIO3{slash}MOSI)*%
X109537500Y-64770000D03*
%TO.P,U1,12,3V3*%
%TO.N,unconnected-(U1-3V3-Pad12)*%
X109537500Y-62230000D03*
%TO.P,U1,13,GND*%
%TO.N,GND*%
X109537500Y-59690000D03*
%TO.P,U1,14,VBUS*%
%TO.N,+5V*%
X109537500Y-57150000D03*
%TD*%
D19*
%TO.N,Net-(D1-DOUT)*%
X85434236Y-70397306D03*
X89000000Y-76600000D03*
X116000000Y-78000000D03*
X83591342Y-68559800D03*
%TO.N,Net-(D4-K)*%
X78310300Y-100649200D03*
%TO.N,Net-(D4-A)*%
X90546300Y-60932500D03*
%TO.N,+5V*%
X83583500Y-57679500D03*
%TO.N,Net-(D1-DIN)*%
X92954700Y-77217600D03*
%TO.N,Net-(D6-K)*%
X106884700Y-73004500D03*
%TO.N,Net-(D7-A)*%
X81319800Y-60430000D03*
%TO.N,Net-(D7-K)*%
X84821400Y-73342600D03*
%TO.N,Net-(U1-GPIO3{slash}MOSI)*%
X84485300Y-67803700D03*
%TD*%
D20*
%TO.N,Net-(D1-DOUT)*%
X85379300Y-70452242D02*
X85434236Y-70397306D01*
X85379300Y-72979300D02*
X85379300Y-70452242D01*
X89000000Y-76600000D02*
X85379300Y-72979300D01*
X122001000Y-71999000D02*
X116000000Y-78000000D01*
X122001000Y-65348158D02*
X122001000Y-71999000D01*
X121200000Y-64547158D02*
X122001000Y-65348158D01*
%TO.N,Net-(D1-DIN)*%
X115200000Y-66018579D02*
X115200000Y-66400000D01*
%TO.N,Net-(D1-DOUT)*%
X83200000Y-68168458D02*
X83591342Y-68559800D01*
X83200000Y-66018579D02*
X83200000Y-68168458D01*
%TO.N,Net-(D3-K)*%
X70008800Y-102235000D02*
X70008800Y-58791200D01*
X70008800Y-58791200D02*
X72100000Y-56700000D01*
%TO.N,Net-(D3-A)*%
X83687500Y-56700000D02*
X79720000Y-56700000D01*
X94297500Y-67310000D02*
X83687500Y-56700000D01*
%TO.N,Net-(D4-K)*%
X70992900Y-61357100D02*
X70992900Y-64574400D01*
X72064900Y-65433400D02*
X77358600Y-70727100D01*
X77358600Y-70727100D02*
X77358600Y-92514900D01*
X71851900Y-65433400D02*
X72064900Y-65433400D01*
X78310300Y-93466600D02*
X78310300Y-100649200D01*
X72100000Y-60250000D02*
X70992900Y-61357100D01*
X70992900Y-64574400D02*
X71851900Y-65433400D01*
X77358600Y-92514900D02*
X78310300Y-93466600D01*
%TO.N,Net-(D4-A)*%
X94297500Y-64770000D02*
X90546300Y-61018800D01*
X90546300Y-61018800D02*
X90546300Y-60932500D01*
%TO.N,GND*%
X121200000Y-67600000D02*
X119078000Y-69722000D01*
X117525200Y-69722000D02*
X114076900Y-66273700D01*
X89200000Y-74436200D02*
X95408800Y-80645000D01*
X119078000Y-69722000D02*
X117525200Y-69722000D01*
X114076900Y-64229400D02*
X109537500Y-59690000D01*
X121200000Y-66047158D02*
X121200000Y-67600000D01*
X95408800Y-80645000D02*
X95459600Y-80695800D01*
X95459600Y-99644200D02*
X95408800Y-99695000D01*
X114458800Y-72788400D02*
X114458800Y-80645000D01*
X114076900Y-66273700D02*
X114076900Y-64229400D01*
X95459600Y-80695800D02*
X95459600Y-99644200D01*
X117525200Y-69722000D02*
X114458800Y-72788400D01*
X89200000Y-66047200D02*
X89200000Y-74436200D01*
%TO.N,+5V*%
X83583500Y-64163700D02*
X83583500Y-57679500D01*
X83200000Y-64547200D02*
X83583500Y-64163700D01*
X109537500Y-57150000D02*
X115200000Y-62812500D01*
X115200000Y-62812500D02*
X115200000Y-64547200D01*
%TO.N,Net-(D1-DIN)*%
X92954700Y-68301900D02*
X89200000Y-64547200D01*
X92954700Y-77217600D02*
X92954700Y-68301900D01*
%TO.N,Net-(D5-K)*%
X89058800Y-102235000D02*
X77960500Y-91136700D01*
X77960500Y-69660500D02*
X72100000Y-63800000D01*
X77960500Y-91136700D02*
X77960500Y-69660500D01*
%TO.N,Net-(D6-K)*%
X107165900Y-73342600D02*
X106884700Y-73061400D01*
X106884700Y-73061400D02*
X106884700Y-73004500D01*
X107165900Y-73342600D02*
X107165900Y-82242100D01*
X107165900Y-82242100D02*
X108108800Y-83185000D01*
%TO.N,Net-(D7-A)*%
X81319800Y-69300200D02*
X79720000Y-70900000D01*
X81319800Y-60430000D02*
X81319800Y-69300200D01*
%TO.N,Net-(D7-K)*%
X89058800Y-83185000D02*
X89058800Y-77580000D01*
X89058800Y-77580000D02*
X84821400Y-73342600D01*
%TO.N,Net-(U1-GPIO3{slash}MOSI)*%
X84219700Y-68069300D02*
X84219700Y-84849000D01*
X84219700Y-84849000D02*
X80962500Y-88106200D01*
X84485300Y-67803700D02*
X84219700Y-68069300D01*
%TD*%
M02*
