%TF.GenerationSoftware,KiCad,Pcbnew,9.0.6*%
%TF.CreationDate,2026-01-21T21:50:30-06:00*%
%TF.ProjectId,test test,74657374-2074-4657-9374-2e6b69636164,rev?*%
%TF.SameCoordinates,Original*%
%TF.FileFunction,Profile,NP*%
%FSLAX46Y46*%
G04 Gerber Fmt 4.6, Leading zero omitted, Abs format (unit mm)*
G04 Created by KiCad (PCBNEW 9.0.6) date 2026-01-21 21:50:30*
%MOMM*%
%LPD*%
G01*
G04 APERTURE LIST*
%TA.AperFunction,Profile*%
%ADD10C,0.050000*%
%TD*%
%TA.AperFunction,Profile*%
%ADD11C,0.100000*%
%TD*%
G04 APERTURE END LIST*
D10*
X61600000Y-54200000D02*
X126200000Y-54200000D01*
X126200000Y-116200000D01*
X61600000Y-116200000D01*
X61600000Y-54200000D01*
D11*
%TO.C,D2*%
X116500002Y-66000000D02*
X116500002Y-64594316D01*
X117405549Y-63797159D02*
X118994454Y-63797159D01*
X118994453Y-66797158D02*
X117405549Y-66797158D01*
X119900000Y-64594316D02*
X119900000Y-66000000D01*
X116450517Y-64377438D02*
G75*
G02*
X116500002Y-64594316I-450505J-216876D01*
G01*
X116450517Y-64377438D02*
G75*
G02*
X117153290Y-63728859I450515J216878D01*
G01*
X116500002Y-66000001D02*
G75*
G02*
X116450517Y-66216878I-499990J-1D01*
G01*
X117153290Y-66865455D02*
G75*
G02*
X116450517Y-66216878I-252258J431700D01*
G01*
X117153291Y-66865457D02*
G75*
G02*
X117405549Y-66797158I252261J-431710D01*
G01*
X117405548Y-63797158D02*
G75*
G02*
X117153290Y-63728859I3J500009D01*
G01*
X118994453Y-66797158D02*
G75*
G02*
X119246712Y-66865457I-3J-500012D01*
G01*
X119246712Y-63728860D02*
G75*
G02*
X118994454Y-63797160I-252262J431710D01*
G01*
X119246712Y-63728860D02*
G75*
G02*
X119949484Y-64377438I252258J-431700D01*
G01*
X119900000Y-64594315D02*
G75*
G02*
X119949479Y-64377435I500000J15D01*
G01*
X119949485Y-66216877D02*
G75*
G02*
X119246712Y-66865457I-450514J-216880D01*
G01*
X119949485Y-66216878D02*
G75*
G02*
X119900000Y-66000000I450515J216878D01*
G01*
%TO.C,D1*%
X84500002Y-66000000D02*
X84500002Y-64594316D01*
X85405549Y-63797159D02*
X86994454Y-63797159D01*
X86994453Y-66797158D02*
X85405549Y-66797158D01*
X87900000Y-64594316D02*
X87900000Y-66000000D01*
X84450517Y-64377438D02*
G75*
G02*
X84500002Y-64594316I-450505J-216876D01*
G01*
X84450517Y-64377438D02*
G75*
G02*
X85153290Y-63728859I450515J216878D01*
G01*
X84500002Y-66000001D02*
G75*
G02*
X84450517Y-66216878I-499990J-1D01*
G01*
X85153290Y-66865455D02*
G75*
G02*
X84450517Y-66216878I-252258J431700D01*
G01*
X85153291Y-66865457D02*
G75*
G02*
X85405549Y-66797158I252261J-431710D01*
G01*
X85405548Y-63797158D02*
G75*
G02*
X85153290Y-63728859I3J500009D01*
G01*
X86994453Y-66797158D02*
G75*
G02*
X87246712Y-66865457I-3J-500012D01*
G01*
X87246712Y-63728860D02*
G75*
G02*
X86994454Y-63797160I-252262J431710D01*
G01*
X87246712Y-63728860D02*
G75*
G02*
X87949484Y-64377438I252258J-431700D01*
G01*
X87900000Y-64594315D02*
G75*
G02*
X87949479Y-64377435I500000J15D01*
G01*
X87949485Y-66216877D02*
G75*
G02*
X87246712Y-66865457I-450514J-216880D01*
G01*
X87949485Y-66216878D02*
G75*
G02*
X87900000Y-66000000I450515J216878D01*
G01*
%TD*%
M02*
