%TF.GenerationSoftware,KiCad,Pcbnew,9.0.6*%
%TF.CreationDate,2026-01-21T21:50:30-06:00*%
%TF.ProjectId,test test,74657374-2074-4657-9374-2e6b69636164,rev?*%
%TF.SameCoordinates,Original*%
%TF.FileFunction,OtherDrawing,Comment*%
%FSLAX46Y46*%
G04 Gerber Fmt 4.6, Leading zero omitted, Abs format (unit mm)*
G04 Created by KiCad (PCBNEW 9.0.6) date 2026-01-21 21:50:30*
%MOMM*%
%LPD*%
G01*
G04 APERTURE LIST*
%ADD10C,0.150000*%
G04 APERTURE END LIST*
D10*
%TO.C,SW4*%
X102393800Y-95250000D02*
X121443800Y-95250000D01*
X102393800Y-114300000D02*
X102393800Y-95250000D01*
X121443800Y-95250000D02*
X121443800Y-114300000D01*
X121443800Y-114300000D02*
X102393800Y-114300000D01*
%TO.C,SW5*%
X64293800Y-95250000D02*
X83343800Y-95250000D01*
X64293800Y-114300000D02*
X64293800Y-95250000D01*
X83343800Y-95250000D02*
X83343800Y-114300000D01*
X83343800Y-114300000D02*
X64293800Y-114300000D01*
%TO.C,SW1*%
X83343800Y-76200000D02*
X102393800Y-76200000D01*
X83343800Y-95250000D02*
X83343800Y-76200000D01*
X102393800Y-76200000D02*
X102393800Y-95250000D01*
X102393800Y-95250000D02*
X83343800Y-95250000D01*
%TO.C,SW3*%
X83343800Y-95250000D02*
X102393800Y-95250000D01*
X83343800Y-114300000D02*
X83343800Y-95250000D01*
X102393800Y-95250000D02*
X102393800Y-114300000D01*
X102393800Y-114300000D02*
X83343800Y-114300000D01*
%TO.C,SW2*%
X102393800Y-76200000D02*
X121443800Y-76200000D01*
X102393800Y-95250000D02*
X102393800Y-76200000D01*
X121443800Y-76200000D02*
X121443800Y-95250000D01*
X121443800Y-95250000D02*
X102393800Y-95250000D01*
%TD*%
M02*
