%TF.GenerationSoftware,KiCad,Pcbnew,9.0.6*%
%TF.CreationDate,2026-01-21T21:59:35-06:00*%
%TF.ProjectId,test test,74657374-2074-4657-9374-2e6b69636164,rev?*%
%TF.SameCoordinates,Original*%
%TF.FileFunction,Copper,L1,Top*%
%TF.FilePolarity,Positive*%
%FSLAX46Y46*%
G04 Gerber Fmt 4.6, Leading zero omitted, Abs format (unit mm)*
G04 Created by KiCad (PCBNEW 9.0.6) date 2026-01-21 21:59:35*
%MOMM*%
%LPD*%
G01*
G04 APERTURE LIST*
G04 Aperture macros list*
%AMRoundRect*
0 Rectangle with rounded corners*
0 $1 Rounding radius*
0 $2 $3 $4 $5 $6 $7 $8 $9 X,Y pos of 4 corners*
0 Add a 4 corners polygon primitive as box body*
4,1,4,$2,$3,$4,$5,$6,$7,$8,$9,$2,$3,0*
0 Add four circle primitives for the rounded corners*
1,1,$1+$1,$2,$3*
1,1,$1+$1,$4,$5*
1,1,$1+$1,$6,$7*
1,1,$1+$1,$8,$9*
0 Add four rect primitives between the rounded corners*
20,1,$1+$1,$2,$3,$4,$5,0*
20,1,$1+$1,$4,$5,$6,$7,0*
20,1,$1+$1,$6,$7,$8,$9,0*
20,1,$1+$1,$8,$9,$2,$3,0*%
G04 Aperture macros list end*
%TA.AperFunction,ComponentPad*%
%ADD10RoundRect,0.250000X-0.550000X-0.550000X0.550000X-0.550000X0.550000X0.550000X-0.550000X0.550000X0*%
%TD*%
%TA.AperFunction,ComponentPad*%
%ADD11C,1.600000*%
%TD*%
%TA.AperFunction,ComponentPad*%
%ADD12R,2.000000X2.000000*%
%TD*%
%TA.AperFunction,ComponentPad*%
%ADD13C,2.000000*%
%TD*%
%TA.AperFunction,ComponentPad*%
%ADD14C,3.200000*%
%TD*%
%TA.AperFunction,ComponentPad*%
%ADD15C,2.200000*%
%TD*%
%TA.AperFunction,SMDPad,CuDef*%
%ADD16RoundRect,0.152400X1.063600X0.609600X-1.063600X0.609600X-1.063600X-0.609600X1.063600X-0.609600X0*%
%TD*%
%TA.AperFunction,ComponentPad*%
%ADD17C,1.524000*%
%TD*%
%TA.AperFunction,SMDPad,CuDef*%
%ADD18RoundRect,0.152400X-1.063600X-0.609600X1.063600X-0.609600X1.063600X0.609600X-1.063600X0.609600X0*%
%TD*%
%TA.AperFunction,ViaPad*%
%ADD19C,0.600000*%
%TD*%
%TA.AperFunction,Conductor*%
%ADD20C,0.200000*%
%TD*%
G04 APERTURE END LIST*
D10*
%TO.P,D5,1,K*%
%TO.N,Net-(D5-K)*%
X72100000Y-63800000D03*
D11*
%TO.P,D5,2,A*%
%TO.N,Net-(D5-A)*%
X79720000Y-63800000D03*
%TD*%
D12*
%TO.P,SW6,A,A*%
%TO.N,Net-(U1-GPIO2{slash}SCK)*%
X66462500Y-83106200D03*
D13*
%TO.P,SW6,B,B*%
%TO.N,Net-(U1-GPIO4{slash}MISO)*%
X66462500Y-88106200D03*
%TO.P,SW6,C,C*%
%TO.N,unconnected-(SW6-PadC)*%
X66462500Y-85606200D03*
D14*
%TO.P,SW6,MP*%
%TO.N,N/C*%
X73962500Y-80006200D03*
X73962500Y-91206200D03*
D13*
%TO.P,SW6,S1,S1*%
%TO.N,Net-(U1-GPIO3{slash}MOSI)*%
X80962500Y-88106200D03*
%TO.P,SW6,S2,S2*%
%TO.N,GND*%
X80962500Y-83106200D03*
%TD*%
D15*
%TO.P,SW4,1,1*%
%TO.N,GND*%
X114458800Y-99695000D03*
%TO.P,SW4,2,2*%
%TO.N,Net-(D4-K)*%
X108108800Y-102235000D03*
%TD*%
%TO.P,SW5,1,1*%
%TO.N,GND*%
X76358800Y-99695000D03*
%TO.P,SW5,2,2*%
%TO.N,Net-(D3-K)*%
X70008800Y-102235000D03*
%TD*%
D16*
%TO.P,U1,1,GPIO26/ADC0/A0*%
%TO.N,Net-(D7-A)*%
X93462500Y-57150000D03*
D17*
X94297500Y-57150000D03*
D16*
%TO.P,U1,2,GPIO27/ADC1/A1*%
%TO.N,Net-(D6-A)*%
X93462500Y-59690000D03*
D17*
X94297500Y-59690000D03*
D16*
%TO.P,U1,3,GPIO28/ADC2/A2*%
%TO.N,Net-(D5-A)*%
X93462500Y-62230000D03*
D17*
X94297500Y-62230000D03*
D16*
%TO.P,U1,4,GPIO29/ADC3/A3*%
%TO.N,Net-(D4-A)*%
X93462500Y-64770000D03*
D17*
X94297500Y-64770000D03*
D16*
%TO.P,U1,5,GPIO6/SDA*%
%TO.N,Net-(D3-A)*%
X93462500Y-67310000D03*
D17*
X94297500Y-67310000D03*
D16*
%TO.P,U1,6,GPIO7/SCL*%
%TO.N,unconnected-(U1-GPIO7{slash}SCL-Pad6)*%
X93462500Y-69850000D03*
D17*
X94297500Y-69850000D03*
D16*
%TO.P,U1,7,GPIO0/TX*%
%TO.N,unconnected-(U1-GPIO0{slash}TX-Pad7)*%
X93462500Y-72390000D03*
D17*
X94297500Y-72390000D03*
%TO.P,U1,8,GPIO1/RX*%
%TO.N,Net-(D1-DIN)*%
X109537500Y-72390000D03*
D18*
X110372500Y-72390000D03*
D17*
%TO.P,U1,9,GPIO2/SCK*%
%TO.N,Net-(U1-GPIO2{slash}SCK)*%
X109537500Y-69850000D03*
D18*
X110372500Y-69850000D03*
D17*
%TO.P,U1,10,GPIO4/MISO*%
%TO.N,Net-(U1-GPIO4{slash}MISO)*%
X109537500Y-67310000D03*
D18*
X110372500Y-67310000D03*
D17*
%TO.P,U1,11,GPIO3/MOSI*%
%TO.N,Net-(U1-GPIO3{slash}MOSI)*%
X109537500Y-64770000D03*
D18*
X110372500Y-64770000D03*
D17*
%TO.P,U1,12,3V3*%
%TO.N,unconnected-(U1-3V3-Pad12)*%
X109537500Y-62230000D03*
D18*
X110372500Y-62230000D03*
D17*
%TO.P,U1,13,GND*%
%TO.N,GND*%
X109537500Y-59690000D03*
D18*
X110372500Y-59690000D03*
D17*
%TO.P,U1,14,VBUS*%
%TO.N,+5V*%
X109537500Y-57150000D03*
D18*
X110372500Y-57150000D03*
%TD*%
D15*
%TO.P,SW1,1,1*%
%TO.N,GND*%
X95408800Y-80645000D03*
%TO.P,SW1,2,2*%
%TO.N,Net-(D7-K)*%
X89058800Y-83185000D03*
%TD*%
D10*
%TO.P,D6,1,K*%
%TO.N,Net-(D6-K)*%
X72100000Y-67350000D03*
D11*
%TO.P,D6,2,A*%
%TO.N,Net-(D6-A)*%
X79720000Y-67350000D03*
%TD*%
D10*
%TO.P,D4,1,K*%
%TO.N,Net-(D4-K)*%
X72100000Y-60250000D03*
D11*
%TO.P,D4,2,A*%
%TO.N,Net-(D4-A)*%
X79720000Y-60250000D03*
%TD*%
D15*
%TO.P,SW3,1,1*%
%TO.N,GND*%
X95408800Y-99695000D03*
%TO.P,SW3,2,2*%
%TO.N,Net-(D5-K)*%
X89058800Y-102235000D03*
%TD*%
D10*
%TO.P,D7,1,K*%
%TO.N,Net-(D7-K)*%
X72100000Y-70900000D03*
D11*
%TO.P,D7,2,A*%
%TO.N,Net-(D7-A)*%
X79720000Y-70900000D03*
%TD*%
D15*
%TO.P,SW2,1,1*%
%TO.N,GND*%
X114458800Y-80645000D03*
%TO.P,SW2,2,2*%
%TO.N,Net-(D6-K)*%
X108108800Y-83185000D03*
%TD*%
D10*
%TO.P,D3,1,K*%
%TO.N,Net-(D3-K)*%
X72100000Y-56700000D03*
D11*
%TO.P,D3,2,A*%
%TO.N,Net-(D3-A)*%
X79720000Y-56700000D03*
%TD*%
D19*
%TO.N,*%
X83619700Y-68583865D03*
X88600000Y-70400000D03*
X108200000Y-68800000D03*
%TO.N,Net-(D4-K)*%
X78310300Y-100649200D03*
%TO.N,Net-(D4-A)*%
X90546300Y-60932500D03*
%TO.N,+5V*%
X83583500Y-57679500D03*
%TO.N,Net-(D1-DIN)*%
X115400000Y-73600000D03*
X92954700Y-77217600D03*
%TO.N,Net-(D6-K)*%
X106884700Y-73004500D03*
%TO.N,Net-(D7-A)*%
X81319800Y-60430000D03*
%TO.N,Net-(D7-K)*%
X84821400Y-73342600D03*
%TO.N,Net-(U1-GPIO3{slash}MOSI)*%
X84485300Y-67803700D03*
%TD*%
D20*
%TO.N,*%
X83619700Y-68583865D02*
X85435835Y-70400000D01*
X106800000Y-70200000D02*
X108200000Y-68800000D01*
X102188200Y-68788200D02*
X103600000Y-70200000D01*
X103600000Y-70200000D02*
X106800000Y-70200000D01*
X90211800Y-68788200D02*
X102188200Y-68788200D01*
X85435835Y-70400000D02*
X88600000Y-70400000D01*
X88600000Y-70400000D02*
X90211800Y-68788200D01*
%TO.N,unconnected-(U1-GPIO0{slash}TX-Pad7)*%
X94297500Y-72390000D02*
X93462500Y-72390000D01*
%TO.N,Net-(D3-A)*%
X94297500Y-67310000D02*
X93462500Y-67310000D01*
%TO.N,unconnected-(U1-3V3-Pad12)*%
X110372500Y-62230000D02*
X109537500Y-62230000D01*
%TO.N,Net-(D4-K)*%
X78310300Y-100649200D02*
X92349500Y-100649200D01*
X92349500Y-100649200D02*
X93365300Y-101665000D01*
X93365300Y-101665000D02*
X107538800Y-101665000D01*
X107538800Y-101665000D02*
X108108800Y-102235000D01*
%TO.N,unconnected-(U1-GPIO7{slash}SCL-Pad6)*%
X93462500Y-69850000D02*
X94297500Y-69850000D01*
%TO.N,Net-(D4-A)*%
X80501800Y-61031800D02*
X79720000Y-60250000D01*
X90546300Y-60932500D02*
X90447000Y-61031800D01*
X94297500Y-64770000D02*
X93462500Y-64770000D01*
X90447000Y-61031800D02*
X80501800Y-61031800D01*
%TO.N,GND*%
X114458800Y-99695000D02*
X95408800Y-99695000D01*
X109537500Y-59690000D02*
X110372500Y-59690000D01*
X76358800Y-99695000D02*
X95408800Y-99695000D01*
X83423700Y-80645000D02*
X95408800Y-80645000D01*
X80962500Y-83106200D02*
X83423700Y-80645000D01*
X114458800Y-80645000D02*
X95408800Y-80645000D01*
%TO.N,+5V*%
X85241300Y-56021700D02*
X108409200Y-56021700D01*
X110372500Y-57150000D02*
X109537500Y-57150000D01*
X108409200Y-56021700D02*
X109537500Y-57150000D01*
X83583500Y-57679500D02*
X85241300Y-56021700D01*
%TO.N,Net-(D1-DIN)*%
X109537500Y-72390000D02*
X109537500Y-72467400D01*
X115400000Y-73600000D02*
X114190000Y-72390000D01*
X109537500Y-72467400D02*
X104787300Y-77217600D01*
X104787300Y-77217600D02*
X92954700Y-77217600D01*
X109537500Y-72390000D02*
X110372500Y-72390000D01*
X114190000Y-72390000D02*
X110372500Y-72390000D01*
%TO.N,Net-(D5-A)*%
X79720000Y-63800000D02*
X81290000Y-62230000D01*
X81290000Y-62230000D02*
X93462500Y-62230000D01*
X94297500Y-62230000D02*
X93462500Y-62230000D01*
%TO.N,Net-(D6-K)*%
X106884700Y-73061400D02*
X106884700Y-73004500D01*
X105098800Y-71275500D02*
X107026300Y-73202900D01*
X107026300Y-73202900D02*
X106884700Y-73061400D01*
X83217500Y-69029100D02*
X85463900Y-71275500D01*
X73779100Y-69029100D02*
X83217500Y-69029100D01*
X85463900Y-71275500D02*
X105098800Y-71275500D01*
X72100000Y-67350000D02*
X73779100Y-69029100D01*
%TO.N,Net-(D6-A)*%
X78584900Y-63333900D02*
X80384600Y-61534200D01*
X80384600Y-61534200D02*
X91618300Y-61534200D01*
X79720000Y-67350000D02*
X78584900Y-66214900D01*
X94297500Y-59690000D02*
X93462500Y-59690000D01*
X78584900Y-66214900D02*
X78584900Y-63333900D01*
X91618300Y-61534200D02*
X93462500Y-59690000D01*
%TO.N,Net-(D7-A)*%
X93462500Y-57150000D02*
X90182500Y-60430000D01*
X90182500Y-60430000D02*
X81319800Y-60430000D01*
X94297500Y-57150000D02*
X93462500Y-57150000D01*
%TO.N,Net-(D7-K)*%
X84821400Y-73342600D02*
X74542600Y-73342600D01*
X74542600Y-73342600D02*
X72100000Y-70900000D01*
%TO.N,Net-(U1-GPIO4{slash}MISO)*%
X111937700Y-70602000D02*
X111419400Y-71120300D01*
X105735200Y-75630000D02*
X83338700Y-75630000D01*
X108460400Y-71951200D02*
X108460400Y-72904800D01*
X110372500Y-67310000D02*
X111937700Y-68875200D01*
X108460400Y-72904800D02*
X105735200Y-75630000D01*
X83338700Y-75630000D02*
X70862500Y-88106200D01*
X111419400Y-71120300D02*
X109291300Y-71120300D01*
X109537500Y-67310000D02*
X110372500Y-67310000D01*
X70862500Y-88106200D02*
X66462500Y-88106200D01*
X111937700Y-68875200D02*
X111937700Y-70602000D01*
X109291300Y-71120300D02*
X108460400Y-71951200D01*
%TO.N,Net-(U1-GPIO3{slash}MOSI)*%
X105920300Y-68387200D02*
X85068800Y-68387200D01*
X109537500Y-64770000D02*
X105920300Y-68387200D01*
X110372500Y-64770000D02*
X109537500Y-64770000D01*
X85068800Y-68387200D02*
X84485300Y-67803700D01*
%TO.N,Net-(U1-GPIO2{slash}SCK)*%
X76862400Y-74008000D02*
X67764200Y-83106200D01*
X106380500Y-73841700D02*
X106214200Y-74008000D01*
X108058700Y-71328800D02*
X108058700Y-72738500D01*
X66462500Y-83106200D02*
X67764200Y-83106200D01*
X106214200Y-74008000D02*
X76862400Y-74008000D01*
X106380500Y-73841700D02*
X106214200Y-74008000D01*
X109537500Y-69850000D02*
X110372500Y-69850000D01*
X109537500Y-69850000D02*
X108058700Y-71328800D01*
X108058700Y-72738500D02*
X107190900Y-73606300D01*
X106615900Y-73606300D02*
X106380500Y-73841700D01*
X107190900Y-73606300D02*
X106615900Y-73606300D01*
%TD*%
M02*
